<?xml version="1.0" standalone="no"?>
<!DOCTYPE svg PUBLIC "-//W3C//DTD SVG 20010904//EN"
 "http://www.w3.org/TR/2001/REC-SVG-20010904/DTD/svg10.dtd">
<svg version="1.0" xmlns="http://www.w3.org/2000/svg"
 width="900.000000pt" height="600.000000pt" viewBox="0 0 900.000000 600.000000"
 preserveAspectRatio="xMidYMid meet">

<g transform="translate(0.000000,600.000000) scale(0.100000,-0.100000)"
fill="#000000" stroke="none">
<path d="M2870 4835 l0 -74 222 -1 c121 0 223 -1 224 -3 4 -4 5 -283 4 -1829
l0 -1108 -225 0 -225 0 0 -80 0 -80 851 0 c564 0 848 3 844 10 -3 6 -2 10 4
10 5 0 11 -4 13 -9 2 -5 32 -11 66 -12 l64 -3 1 82 2 82 -227 0 -228 0 0 313
c-1 1659 1 2621 3 2623 2 2 103 4 224 5 l222 2 3 73 3 73 -237 1 -236 1 4 -23
c2 -13 2 -17 -2 -10 -3 6 -10 10 -14 7 -5 -3 -12 0 -16 6 -4 8 -3 9 4 5 7 -4
12 -2 12 3 0 8 -209 11 -680 11 l-680 -1 0 -74z m550 49 c0 -2 -7 -4 -15 -4
-8 0 -15 4 -15 10 0 5 7 7 15 4 8 -4 15 -8 15 -10z m50 1 c10 -13 9 -15 -9
-15 -12 0 -21 6 -21 15 0 8 4 15 9 15 5 0 14 -7 21 -15z m55 5 c-3 -5 -12 -7
-20 -3 -21 7 -19 13 6 13 11 0 18 -4 14 -10z m45 -80 c0 -5 -5 -10 -11 -10 -5
0 -7 5 -4 10 3 6 8 10 11 10 2 0 4 -4 4 -10z m255 -20 c-3 -5 -12 -10 -18 -10
-7 0 -6 4 3 10 19 12 23 12 15 0z m45 -60 c0 -5 -10 -10 -22 -9 -22 0 -22 1
-3 9 11 5 21 9 23 9 1 1 2 -3 2 -9z m-224 -11 c3 -6 1 -16 -6 -22 -10 -9 -11
-9 -5 2 4 8 2 17 -6 22 -9 6 -10 9 -2 9 6 0 15 -5 19 -11z m591 -105 c-3 -3
-12 -4 -19 -1 -8 3 -5 6 6 6 11 1 17 -2 13 -5z m-597 -240 c0 -8 -5 -12 -10
-9 -6 4 -8 11 -5 16 9 14 15 11 15 -7z m260 -4 c0 -5 -2 -10 -4 -10 -3 0 -8 5
-11 10 -3 6 -1 10 4 10 6 0 11 -4 11 -10z m57 -36 c-3 -3 -12 -4 -19 -1 -8 3
-5 6 6 6 11 1 17 -2 13 -5z m238 -14 c8 -13 -5 -13 -25 0 -13 8 -13 10 2 10 9
0 20 -4 23 -10z m-520 -70 c3 -6 -1 -7 -9 -4 -18 7 -21 14 -7 14 6 0 13 -4 16
-10z m32 -116 c-3 -3 -12 -4 -19 -1 -8 3 -5 6 6 6 11 1 17 -2 13 -5z m133
-146 c0 -4 -7 -8 -15 -8 -8 0 -15 4 -15 8 0 5 7 9 15 9 8 0 15 -4 15 -9z m-60
-68 c0 -5 -2 -10 -4 -10 -3 0 -8 5 -11 10 -3 6 -1 10 4 10 6 0 11 -4 11 -10z
m-65 -107 c-4 -10 -7 -27 -7 -38 1 -15 -1 -17 -8 -5 -5 8 -6 18 -4 22 3 4 -2
5 -10 2 -9 -3 -16 -1 -16 5 0 6 9 11 21 11 11 0 17 5 14 10 -3 6 -1 10 5 10 8
0 9 -7 5 -17z m-41 -29 c9 -3 16 -12 16 -20 0 -8 8 -14 18 -15 11 0 12 -2 4
-6 -7 -3 -24 7 -39 21 -26 27 -26 30 1 20z m226 -50 c0 -2 -7 -4 -15 -4 -8 0
-15 4 -15 10 0 5 7 7 15 4 8 -4 15 -8 15 -10z m204 -29 c3 -8 1 -15 -4 -15 -6
0 -10 5 -10 11 0 5 -5 7 -12 3 -7 -4 -8 -3 -4 4 10 16 23 15 30 -3z m-174 -99
c0 -3 -4 -8 -10 -11 -5 -3 -10 -1 -10 4 0 6 5 11 10 11 6 0 10 -2 10 -4z m90
-23 c0 -14 -2 -15 -9 -4 -5 8 -14 10 -21 6 -9 -5 -11 -4 -6 3 11 18 36 14 36
-5z m40 13 c0 -2 -7 -6 -15 -10 -8 -3 -15 -1 -15 4 0 6 7 10 15 10 8 0 15 -2
15 -4z m45 -5 c3 -6 -4 -9 -15 -8 -11 1 -20 5 -20 9 0 11 28 10 35 -1z m-445
-11 c0 -5 -5 -10 -11 -10 -5 0 -7 5 -4 10 3 6 8 10 11 10 2 0 4 -4 4 -10z
m493 3 c-7 -2 -19 -2 -25 0 -7 3 -2 5 12 5 14 0 19 -2 13 -5z m97 -3 c0 -5 -8
-10 -17 -10 -15 0 -16 2 -3 10 19 12 20 12 20 0z m-520 -70 c0 -5 -5 -10 -11
-10 -5 0 -7 5 -4 10 3 6 8 10 11 10 2 0 4 -4 4 -10z m230 -10 c0 -5 -5 -10
-11 -10 -5 0 -7 5 -4 10 3 6 8 10 11 10 2 0 4 -4 4 -10z m-520 -26 c0 -22 -16
-17 -17 6 -1 11 2 18 8 15 5 -4 9 -13 9 -21z m0 -44 c0 -5 -4 -10 -10 -10 -5
0 -10 5 -10 10 0 6 5 10 10 10 6 0 10 -4 10 -10z m279 -26 c9 -8 -45 -2 -64 6
-14 7 -8 8 20 3 22 -3 42 -7 44 -9z m161 -14 c0 -5 -2 -10 -4 -10 -3 0 -8 5
-11 10 -3 6 -1 10 4 10 6 0 11 -4 11 -10z m210 -16 c0 -2 -7 -4 -15 -4 -8 0
-15 4 -15 10 0 5 7 7 15 4 8 -4 15 -8 15 -10z m113 -1 c-7 -2 -21 -2 -30 0
-10 3 -4 5 12 5 17 0 24 -2 18 -5z m-513 -53 c0 -5 -2 -10 -4 -10 -3 0 -8 5
-11 10 -3 6 -1 10 4 10 6 0 11 -4 11 -10z m-183 -16 c-3 -3 -12 -4 -19 -1 -8
3 -5 6 6 6 11 1 17 -2 13 -5z m353 -594 c0 -5 -2 -10 -4 -10 -3 0 -8 5 -11 10
-3 6 -1 10 4 10 6 0 11 -4 11 -10z m54 -18 c3 -5 -1 -9 -9 -9 -8 0 -15 4 -15
9 0 4 4 8 9 8 6 0 12 -4 15 -8z m161 -42 c3 -5 1 -10 -4 -10 -6 0 -11 5 -11
10 0 6 2 10 4 10 3 0 8 -4 11 -10z m-570 -130 c3 -5 1 -10 -4 -10 -6 0 -11 5
-11 10 0 6 2 10 4 10 3 0 8 -4 11 -10z m273 -17 c-10 -2 -26 -2 -35 0 -10 3
-2 5 17 5 19 0 27 -2 18 -5z m-138 -233 c0 -5 -2 -10 -4 -10 -3 0 -8 5 -11 10
-3 6 -1 10 4 10 6 0 11 -4 11 -10z m314 -155 c3 -9 0 -15 -8 -15 -7 0 -13 7
-13 15 0 8 4 15 8 15 4 0 9 -7 13 -15z m146 -229 c0 -3 -4 -8 -10 -11 -5 -3
-10 -1 -10 4 0 6 5 11 10 11 6 0 10 -2 10 -4z m130 -46 c0 -5 -7 -7 -15 -4 -8
4 -15 8 -15 10 0 2 7 4 15 4 8 0 15 -4 15 -10z m-905 -71 c11 -16 1 -19 -13
-3 -7 8 -8 14 -3 14 5 0 13 -5 16 -11z m565 -29 c8 -5 11 -10 5 -10 -5 0 -17
5 -25 10 -8 5 -10 10 -5 10 6 0 17 -5 25 -10z"/>
<path d="M5230 4835 l0 -75 213 0 c211 0 214 0 236 -23 33 -36 18 -60 -101
-168 -56 -52 -122 -113 -146 -136 -24 -23 -47 -43 -51 -45 -23 -9 -789 -702
-785 -709 3 -5 -2 -9 -11 -9 -8 0 -41 -25 -72 -55 -31 -30 -59 -56 -63 -57 -4
-2 -35 -28 -68 -58 l-62 -55 0 -65 0 -65 80 -103 c44 -57 88 -114 96 -128 9
-13 19 -22 23 -19 4 2 8 -2 8 -9 0 -7 86 -126 192 -264 171 -224 195 -251 212
-242 13 7 19 7 19 0 0 -5 -7 -10 -15 -10 -22 0 -19 -8 24 -64 234 -306 491
-647 491 -651 0 -3 -99 -5 -220 -5 l-220 0 0 -82 0 -83 985 3 985 2 0 81 0 80
-87 -1 c-49 -1 -149 -1 -223 -1 l-136 1 -81 107 c-95 127 -146 194 -731 961
-326 427 -448 580 -454 570 -7 -9 -8 -8 -4 5 4 13 -30 65 -119 182 -113 148
-141 195 -116 195 4 0 109 90 232 201 148 132 223 206 221 217 -2 11 0 13 5 5
6 -8 66 40 188 148 361 323 417 349 740 350 l175 0 0 74 0 75 -680 0 -680 0 0
-75z m1035 -55 c3 -5 1 -10 -4 -10 -6 0 -11 5 -11 10 0 6 2 10 4 10 3 0 8 -4
11 -10z m-1398 -942 c-3 -8 -6 -5 -6 6 -1 11 2 17 5 13 3 -3 4 -12 1 -19z
m-147 -68 c0 -5 -5 -10 -11 -10 -5 0 -7 5 -4 10 3 6 8 10 11 10 2 0 4 -4 4
-10z m37 -106 c-3 -3 -12 -4 -19 -1 -8 3 -5 6 6 6 11 1 17 -2 13 -5z m147 -13
c3 -4 -6 -6 -19 -3 -14 2 -25 6 -25 8 0 8 39 4 44 -5z m-334 -101 c0 -5 -5
-10 -11 -10 -5 0 -7 5 -4 10 3 6 8 10 11 10 2 0 4 -4 4 -10z m95 -1 c5 -7 -5
-8 -32 -3 -51 9 -54 14 -10 14 20 0 39 -5 42 -11z m195 -50 c0 -6 -4 -7 -10
-4 -5 3 -10 11 -10 16 0 6 5 7 10 4 6 -3 10 -11 10 -16z m-100 -179 c0 -5 -7
-10 -16 -10 -8 0 -12 5 -9 10 3 6 10 10 16 10 5 0 9 -4 9 -10z m-240 -140 c0
-5 -5 -10 -11 -10 -5 0 -7 5 -4 10 3 6 8 10 11 10 2 0 4 -4 4 -10z m392 -32
c-7 -7 -12 -8 -12 -2 0 6 3 14 7 17 3 4 9 5 12 2 2 -3 -1 -11 -7 -17z m272
-170 c-3 -4 -18 -6 -33 -5 -16 1 -27 5 -25 9 3 4 18 6 33 5 16 -1 27 -5 25 -9z
m246 -70 c0 -5 -11 -8 -25 -8 -14 0 -25 3 -25 8 0 4 11 7 25 7 14 0 25 -3 25
-7z m-420 -241 c11 3 12 2 3 -4 -17 -12 -66 -9 -71 5 -2 7 3 10 12 6 10 -4 16
-1 16 7 1 11 4 10 13 -2 7 -9 19 -14 27 -12z m-80 -7 c0 -5 -8 -10 -17 -10
-15 0 -16 2 -3 10 19 12 20 12 20 0z m-36 -60 c-6 -5 -24 21 -24 34 0 6 6 1
14 -10 8 -10 12 -21 10 -24z m111 30 c3 -5 1 -10 -4 -10 -6 0 -11 5 -11 10 0
6 2 10 4 10 3 0 8 -4 11 -10z m751 -17 c-7 -7 -26 7 -26 19 0 6 6 6 15 -2 9
-7 13 -15 11 -17z m98 -112 c-6 -6 -34 20 -34 32 0 6 8 2 19 -9 10 -10 17 -21
15 -23z m10 -27 c3 -8 2 -12 -4 -9 -6 3 -10 10 -10 16 0 14 7 11 14 -7z m146
-84 c0 -5 -2 -10 -4 -10 -3 0 -8 5 -11 10 -3 6 -1 10 4 10 6 0 11 -4 11 -10z
m-450 -134 c0 -3 -4 -8 -10 -11 -5 -3 -10 -1 -10 4 0 6 5 11 10 11 6 0 10 -2
10 -4z m370 -118 c0 -6 -6 -5 -15 2 -8 7 -15 14 -15 16 0 2 7 1 15 -2 8 -4 15
-11 15 -16z m385 -168 c3 -5 1 -10 -4 -10 -6 0 -11 5 -11 10 0 6 2 10 4 10 3
0 8 -4 11 -10z m-250 -70 c-3 -5 -12 -10 -18 -10 -7 0 -6 4 3 10 19 12 23 12
15 0z m225 -204 c0 -2 -7 -7 -16 -10 -8 -3 -12 -2 -9 4 6 10 25 14 25 6z"/>
</g>
</svg>
